<svg width="1440" height="56" viewBox="0 0 1440 56" fill="none" xmlns="http://www.w3.org/2000/svg">
<path d="M-6.92485 32.7574L-2.56435 19.4574H-0.711851L3.65815 32.7574H1.50165L-1.30085 23.5709C-1.32618 23.4823 -1.36102 23.3556 -1.40535 23.1909C-1.44968 23.0199 -1.49402 22.8426 -1.53835 22.6589C-1.58268 22.4753 -1.61435 22.3106 -1.63335 22.1649C-1.66502 22.3106 -1.70302 22.4753 -1.74735 22.6589C-1.78535 22.8426 -1.82652 23.0199 -1.87085 23.1909C-1.90885 23.3556 -1.94052 23.4823 -1.96585 23.5709L-4.74935 32.7574H-6.92485ZM-4.31235 29.6984L-3.75185 27.8649H0.485149L1.04565 29.6984H-4.31235ZM7.13916 32.7574V19.4574H9.08666L13.3807 28.0834C13.4313 28.1784 13.501 28.3114 13.5897 28.4824C13.6783 28.6534 13.7512 28.7991 13.8082 28.9194C13.8018 28.7484 13.7923 28.5933 13.7797 28.4539C13.7733 28.3083 13.7702 28.1816 13.7702 28.0739V19.4574H15.6702V32.7574H13.7987L9.44766 24.1504C9.39699 24.0428 9.32416 23.9034 9.22916 23.7324C9.14049 23.5614 9.06766 23.4189 9.01066 23.3049C9.03599 23.4443 9.04866 23.5899 9.04866 23.7419C9.05499 23.8939 9.05816 24.0269 9.05816 24.1409V32.7574H7.13916ZM20.1772 32.7574V19.4574H23.4357C24.5123 19.4574 25.4212 19.6474 26.1622 20.0274C26.9095 20.4011 27.5143 20.9078 27.9767 21.5474C28.439 22.1808 28.7747 22.8933 28.9837 23.6849C29.199 24.4703 29.3067 25.2778 29.3067 26.1074C29.3067 26.8674 29.2053 27.6369 29.0027 28.4159C28.8063 29.1949 28.4802 29.9138 28.0242 30.5724C27.5682 31.2311 26.9602 31.7599 26.2002 32.1589C25.4402 32.5579 24.4933 32.7574 23.3597 32.7574H20.1772ZM22.2007 30.8574H23.5307C24.221 30.8574 24.8005 30.7181 25.2692 30.4394C25.7442 30.1544 26.121 29.7808 26.3997 29.3184C26.6783 28.8498 26.8778 28.3368 26.9982 27.7794C27.1248 27.2221 27.1882 26.6648 27.1882 26.1074C27.1882 25.5121 27.1217 24.9326 26.9887 24.3689C26.862 23.8053 26.6593 23.2954 26.3807 22.8394C26.1083 22.3834 25.7537 22.0224 25.3167 21.7564C24.8797 21.4841 24.354 21.3479 23.7397 21.3479H22.2007V30.8574ZM33.2152 32.7574V19.4574H37.6232C38.7062 19.4574 39.558 19.6443 40.1787 20.0179C40.8057 20.3916 41.249 20.8793 41.5087 21.4809C41.7747 22.0826 41.9077 22.7191 41.9077 23.3904C41.9077 23.8654 41.8285 24.3341 41.6702 24.7964C41.5182 25.2524 41.2775 25.6673 40.9482 26.0409C40.6252 26.4146 40.2103 26.7186 39.7037 26.9529C39.197 27.1873 38.5953 27.3234 37.8987 27.3614H35.2482V32.7574H33.2152ZM39.6277 32.7574L36.8442 27.0954L39.0007 26.8959L41.8792 32.7574H39.6277ZM35.2482 25.4709H37.6612C38.2185 25.4709 38.6555 25.3728 38.9722 25.1764C39.2952 24.9738 39.5232 24.7173 39.6562 24.4069C39.7892 24.0966 39.8557 23.7673 39.8557 23.4189C39.8557 23.1086 39.7923 22.7951 39.6657 22.4784C39.539 22.1554 39.3173 21.8863 39.0007 21.6709C38.684 21.4556 38.2375 21.3479 37.6612 21.3479H35.2482V25.4709ZM50.5187 32.9854C49.651 32.9854 48.91 32.7954 48.2957 32.4154C47.6813 32.0291 47.181 31.5098 46.7947 30.8574C46.4083 30.2051 46.1233 29.4704 45.9397 28.6534C45.7623 27.8301 45.6737 26.9814 45.6737 26.1074C45.6737 25.2334 45.7623 24.3879 45.9397 23.5709C46.1233 22.7476 46.4083 22.0098 46.7947 21.3574C47.181 20.7051 47.6813 20.1889 48.2957 19.8089C48.91 19.4226 49.651 19.2294 50.5187 19.2294C51.3863 19.2294 52.1273 19.4226 52.7417 19.8089C53.3623 20.1889 53.8658 20.7051 54.2522 21.3574C54.6385 22.0098 54.9235 22.7476 55.1072 23.5709C55.2908 24.3879 55.3827 25.2334 55.3827 26.1074C55.3827 26.9814 55.2908 27.8301 55.1072 28.6534C54.9235 29.4704 54.6385 30.2051 54.2522 30.8574C53.8658 31.5098 53.3623 32.0291 52.7417 32.4154C52.1273 32.7954 51.3863 32.9854 50.5187 32.9854ZM50.5187 31.0759C51.0063 31.0759 51.4243 30.9334 51.7727 30.6484C52.121 30.3634 52.4028 29.9834 52.6182 29.5084C52.8398 29.0334 53.0013 28.5014 53.1027 27.9124C53.2103 27.3171 53.2642 26.7154 53.2642 26.1074C53.2642 25.4488 53.2103 24.8249 53.1027 24.2359C53.0013 23.6406 52.843 23.1118 52.6277 22.6494C52.4123 22.1808 52.1305 21.8134 51.7822 21.5474C51.4338 21.2751 51.0127 21.1389 50.5187 21.1389C50.031 21.1389 49.613 21.2814 49.2647 21.5664C48.9163 21.8451 48.6313 22.2219 48.4097 22.6969C48.1943 23.1719 48.0328 23.7071 47.9252 24.3024C47.8238 24.8914 47.7732 25.4931 47.7732 26.1074C47.7732 26.7598 47.8238 27.3836 47.9252 27.9789C48.0328 28.5679 48.1943 29.0968 48.4097 29.5654C48.6313 30.0341 48.9163 30.4046 49.2647 30.6769C49.613 30.9429 50.031 31.0759 50.5187 31.0759ZM59.2912 32.7574V19.4574H61.3337L63.2812 27.0004C63.3382 27.2348 63.3952 27.4723 63.4522 27.7129C63.5155 27.9473 63.5599 28.1563 63.5852 28.3399C63.6169 28.1563 63.6612 27.9473 63.7182 27.7129C63.7752 27.4723 63.8354 27.2348 63.8987 27.0004L65.8842 19.4574H67.8222V32.7574H66.0362V25.1099C66.0362 24.9706 66.0362 24.7869 66.0362 24.5589C66.0425 24.3246 66.0552 24.1283 66.0742 23.9699C66.0235 24.1473 65.9665 24.3373 65.9032 24.5399C65.8462 24.7363 65.7924 24.9263 65.7417 25.1099L63.6707 32.7574H63.4522L61.3717 25.1099C61.321 24.9263 61.264 24.7331 61.2007 24.5304C61.1437 24.3278 61.0899 24.1409 61.0392 23.9699C61.0519 24.1283 61.0614 24.3246 61.0677 24.5589C61.074 24.7869 61.0772 24.9706 61.0772 25.1099V32.7574H59.2912ZM72.3292 32.7574V19.4574H80.5847V21.3859H74.3622V24.9199H78.4852V26.8484H74.3622V30.8289H80.9837V32.7574H72.3292ZM85.3672 32.7574V19.4574H88.6257C89.7024 19.4574 90.6112 19.6474 91.3522 20.0274C92.0995 20.4011 92.7044 20.9078 93.1667 21.5474C93.629 22.1808 93.9647 22.8933 94.1737 23.6849C94.389 24.4703 94.4967 25.2778 94.4967 26.1074C94.4967 26.8674 94.3954 27.6369 94.1927 28.4159C93.9964 29.1949 93.6702 29.9138 93.2142 30.5724C92.7582 31.2311 92.1502 31.7599 91.3902 32.1589C90.6302 32.5579 89.6834 32.7574 88.5497 32.7574H85.3672ZM87.3907 30.8574H88.7207C89.411 30.8574 89.9905 30.7181 90.4592 30.4394C90.9342 30.1544 91.311 29.7808 91.5897 29.3184C91.8684 28.8498 92.0679 28.3368 92.1882 27.7794C92.3149 27.2221 92.3782 26.6648 92.3782 26.1074C92.3782 25.5121 92.3117 24.9326 92.1787 24.3689C92.052 23.8053 91.8494 23.2954 91.5707 22.8394C91.2984 22.3834 90.9437 22.0224 90.5067 21.7564C90.0697 21.4841 89.544 21.3479 88.9297 21.3479H87.3907V30.8574ZM97.3792 32.7574L101.74 19.4574H103.592L107.962 32.7574H105.806L103.003 23.5709C102.978 23.4823 102.943 23.3556 102.899 23.1909C102.854 23.0199 102.81 22.8426 102.766 22.6589C102.721 22.4753 102.69 22.3106 102.671 22.1649C102.639 22.3106 102.601 22.4753 102.557 22.6589C102.519 22.8426 102.478 23.0199 102.433 23.1909C102.395 23.3556 102.364 23.4823 102.338 23.5709L99.5547 32.7574H97.3792ZM99.9917 29.6984L100.552 27.8649H104.789L105.35 29.6984H99.9917ZM128.994 32.9854C128.113 32.9854 127.35 32.7954 126.704 32.4154C126.065 32.0291 125.539 31.5098 125.127 30.8574C124.722 30.1988 124.418 29.4609 124.215 28.6439C124.019 27.8206 123.921 26.9751 123.921 26.1074C123.921 25.2588 124.022 24.4259 124.225 23.6089C124.434 22.7919 124.747 22.0541 125.165 21.3954C125.583 20.7368 126.109 20.2111 126.742 19.8184C127.382 19.4258 128.132 19.2294 128.994 19.2294C129.728 19.2294 130.343 19.3529 130.837 19.5999C131.337 19.8406 131.752 20.1573 132.081 20.5499C132.417 20.9363 132.705 21.3448 132.946 21.7754L131.15 22.8014C130.916 22.3581 130.631 21.9718 130.295 21.6424C129.96 21.3068 129.526 21.1389 128.994 21.1389C128.449 21.1389 127.987 21.2909 127.607 21.5949C127.233 21.8926 126.929 22.2884 126.695 22.7824C126.46 23.2764 126.289 23.8148 126.182 24.3974C126.08 24.9801 126.03 25.5501 126.03 26.1074C126.03 26.7408 126.087 27.3551 126.201 27.9504C126.321 28.5394 126.502 29.0714 126.742 29.5464C126.983 30.0151 127.29 30.3888 127.664 30.6674C128.037 30.9398 128.481 31.0759 128.994 31.0759C129.716 31.0759 130.267 30.8258 130.647 30.3254C131.027 29.8188 131.217 29.1759 131.217 28.3969V27.9789H128.87V26.0884H133.307V27.8364C133.307 28.9511 133.117 29.8916 132.737 30.6579C132.357 31.4243 131.841 32.0038 131.188 32.3964C130.536 32.7891 129.804 32.9854 128.994 32.9854ZM136.493 32.7574L140.854 19.4574H142.706L147.076 32.7574H144.92L142.117 23.5709C142.092 23.4823 142.057 23.3556 142.013 23.1909C141.968 23.0199 141.924 22.8426 141.88 22.6589C141.835 22.4753 141.804 22.3106 141.785 22.1649C141.753 22.3106 141.715 22.4753 141.671 22.6589C141.633 22.8426 141.592 23.0199 141.547 23.1909C141.509 23.3556 141.478 23.4823 141.452 23.5709L138.669 32.7574H136.493ZM139.106 29.6984L139.666 27.8649H143.903L144.464 29.6984H139.106ZM150.557 32.7574V19.4574H152.59V30.8099H158.794V32.7574H150.557ZM162.569 32.7574L166.93 19.4574H168.782L173.152 32.7574H170.996L168.193 23.5709C168.168 23.4823 168.133 23.3556 168.089 23.1909C168.044 23.0199 168 22.8426 167.956 22.6589C167.911 22.4753 167.88 22.3106 167.861 22.1649C167.829 22.3106 167.791 22.4753 167.747 22.6589C167.709 22.8426 167.668 23.0199 167.623 23.1909C167.585 23.3556 167.554 23.4823 167.528 23.5709L164.745 32.7574H162.569ZM165.182 29.6984L165.742 27.8649H169.979L170.54 29.6984H165.182ZM183.597 32.7574L180.367 26.8294L176.168 19.4574H178.476L181.421 24.8914L185.905 32.7574H183.597ZM175.892 32.7574L180.348 24.9484L183.293 19.4574H185.592L181.374 26.8009L178.201 32.7574H175.892ZM192.939 32.7574V27.5324L189.054 19.4574H191.305L194.345 26.3164H193.538L196.616 19.4574H198.82L194.953 27.5324V32.7574H192.939Z" fill="white"/>
<mask id="mask0_42_573" style="mask-type:luminance" maskUnits="userSpaceOnUse" x="204" y="3" width="49" height="49">
<path d="M252.727 41.9455L214.433 51.8631L204.515 13.5694L242.809 3.65176L252.727 41.9455Z" fill="white"/>
</mask>
<g mask="url(#mask0_42_573)">
<path d="M223.662 8.61056C228.914 26.6064 229.484 26.9393 247.768 22.7986C229.772 28.0508 229.439 28.6206 233.58 46.9043C228.328 28.9085 227.758 28.5755 209.474 32.7162C227.469 27.4612 227.804 26.8998 223.662 8.61056Z" fill="url(#paint0_linear_42_573)"/>
</g>
<path d="M262.712 32.9854C262.002 32.9854 261.344 32.8493 260.736 32.5769C260.128 32.2983 259.599 31.9183 259.149 31.4369C258.706 30.9493 258.376 30.3856 258.161 29.7459L260.014 29.0619C260.286 29.6636 260.675 30.1513 261.182 30.5249C261.689 30.8986 262.246 31.0854 262.854 31.0854C263.468 31.0854 263.966 30.9239 264.346 30.6009C264.726 30.2779 264.916 29.8093 264.916 29.1949C264.916 28.7896 264.789 28.4318 264.536 28.1214C264.282 27.8111 263.95 27.5356 263.538 27.2949C263.126 27.0479 262.683 26.8168 262.208 26.6014C261.784 26.4241 261.359 26.2214 260.935 25.9934C260.517 25.7654 260.131 25.4994 259.776 25.1954C259.428 24.8851 259.146 24.5209 258.931 24.1029C258.715 23.6849 258.608 23.1973 258.608 22.6399C258.608 22.0193 258.766 21.4524 259.083 20.9394C259.406 20.4201 259.862 20.0053 260.451 19.6949C261.046 19.3846 261.749 19.2294 262.56 19.2294C263.529 19.2294 264.355 19.4828 265.039 19.9894C265.729 20.4898 266.182 21.1199 266.398 21.8799L264.564 22.4974C264.387 22.1111 264.121 21.7849 263.766 21.5189C263.411 21.2529 262.974 21.1199 262.455 21.1199C261.936 21.1199 261.505 21.2529 261.163 21.5189C260.827 21.7849 260.66 22.1459 260.66 22.6019C260.66 22.9376 260.761 23.2289 260.964 23.4759C261.173 23.7166 261.464 23.9414 261.838 24.1504C262.211 24.3594 262.658 24.5843 263.177 24.8249C263.595 25.0213 264.026 25.2429 264.469 25.4899C264.912 25.7369 265.324 26.0283 265.704 26.3639C266.084 26.6933 266.388 27.0828 266.616 27.5324C266.85 27.9821 266.968 28.5046 266.968 29.0999C266.968 29.9296 266.774 30.6326 266.388 31.2089C266.002 31.7853 265.486 32.2254 264.84 32.5294C264.194 32.8334 263.484 32.9854 262.712 32.9854ZM275.617 32.9854C274.8 32.9854 274.059 32.8176 273.394 32.4819C272.729 32.1399 272.197 31.5826 271.798 30.8099C271.405 30.0373 271.209 28.9986 271.209 27.6939V19.4574H273.223V27.6939C273.223 28.5806 273.327 29.2678 273.536 29.7554C273.751 30.2431 274.04 30.5851 274.401 30.7814C274.762 30.9778 275.167 31.0759 275.617 31.0759C276.06 31.0759 276.462 30.9778 276.823 30.7814C277.19 30.5851 277.479 30.2431 277.688 29.7554C277.903 29.2678 278.011 28.5806 278.011 27.6939V19.4574H280.044V27.6939C280.044 28.9859 279.847 30.0183 279.455 30.7909C279.062 31.5636 278.53 32.1241 277.859 32.4724C277.187 32.8144 276.44 32.9854 275.617 32.9854ZM284.389 32.7574V19.4574H288.864C289.953 19.4574 290.817 19.6569 291.457 20.0559C292.097 20.4549 292.556 20.9679 292.835 21.5949C293.113 22.2156 293.253 22.8584 293.253 23.5234C293.253 23.9921 293.17 24.4671 293.006 24.9484C292.847 25.4234 292.591 25.8604 292.236 26.2594C291.888 26.6584 291.435 26.9814 290.878 27.2284C290.327 27.4691 289.655 27.5894 288.864 27.5894H286.422V32.7574H284.389ZM286.422 25.6989H288.978C289.522 25.6989 289.956 25.5913 290.279 25.3759C290.608 25.1543 290.846 24.8788 290.992 24.5494C291.137 24.2138 291.21 23.8718 291.21 23.5234C291.21 23.2131 291.144 22.8901 291.011 22.5544C290.884 22.2188 290.659 21.9338 290.336 21.6994C290.013 21.4651 289.56 21.3479 288.978 21.3479H286.422V25.6989ZM297.427 32.7574V19.4574H305.683V21.3859H299.46V24.9199H303.583V26.8484H299.46V30.8289H306.082V32.7574H297.427ZM310.465 32.7574V19.4574H314.873C315.956 19.4574 316.808 19.6443 317.429 20.0179C318.056 20.3916 318.499 20.8793 318.759 21.4809C319.025 22.0826 319.158 22.7191 319.158 23.3904C319.158 23.8654 319.078 24.3341 318.92 24.7964C318.768 25.2524 318.527 25.6673 318.198 26.0409C317.875 26.4146 317.46 26.7186 316.954 26.9529C316.447 27.1873 315.845 27.3234 315.149 27.3614H312.498V32.7574H310.465ZM316.878 32.7574L314.094 27.0954L316.251 26.8959L319.129 32.7574H316.878ZM312.498 25.4709H314.911C315.468 25.4709 315.905 25.3728 316.222 25.1764C316.545 24.9738 316.773 24.7173 316.906 24.4069C317.039 24.0966 317.106 23.7673 317.106 23.4189C317.106 23.1086 317.042 22.7951 316.916 22.4784C316.789 22.1554 316.567 21.8863 316.251 21.6709C315.934 21.4556 315.487 21.3479 314.911 21.3479H312.498V25.4709ZM336.541 32.7574V19.4574H338.489L342.783 28.0834C342.833 28.1784 342.903 28.3114 342.992 28.4824C343.08 28.6534 343.153 28.7991 343.21 28.9194C343.204 28.7484 343.194 28.5933 343.182 28.4539C343.175 28.3083 343.172 28.1816 343.172 28.0739V19.4574H345.072V32.7574H343.201L338.85 24.1504C338.799 24.0428 338.726 23.9034 338.631 23.7324C338.542 23.5614 338.47 23.4189 338.413 23.3049C338.438 23.4443 338.451 23.5899 338.451 23.7419C338.457 23.8939 338.46 24.0269 338.46 24.1409V32.7574H336.541ZM353.845 32.9854C352.977 32.9854 352.236 32.7954 351.622 32.4154C351.007 32.0291 350.507 31.5098 350.121 30.8574C349.734 30.2051 349.449 29.4704 349.266 28.6534C349.088 27.8301 349 26.9814 349 26.1074C349 25.2334 349.088 24.3879 349.266 23.5709C349.449 22.7476 349.734 22.0098 350.121 21.3574C350.507 20.7051 351.007 20.1889 351.622 19.8089C352.236 19.4226 352.977 19.2294 353.845 19.2294C354.712 19.2294 355.453 19.4226 356.068 19.8089C356.688 20.1889 357.192 20.7051 357.578 21.3574C357.964 22.0098 358.249 22.7476 358.433 23.5709C358.617 24.3879 358.709 25.2334 358.709 26.1074C358.709 26.9814 358.617 27.8301 358.433 28.6534C358.249 29.4704 357.964 30.2051 357.578 30.8574C357.192 31.5098 356.688 32.0291 356.068 32.4154C355.453 32.7954 354.712 32.9854 353.845 32.9854ZM353.845 31.0759C354.332 31.0759 354.75 30.9334 355.099 30.6484C355.447 30.3634 355.729 29.9834 355.944 29.5084C356.166 29.0334 356.327 28.5014 356.429 27.9124C356.536 27.3171 356.59 26.7154 356.59 26.1074C356.59 25.4488 356.536 24.8249 356.429 24.2359C356.327 23.6406 356.169 23.1118 355.954 22.6494C355.738 22.1808 355.456 21.8134 355.108 21.5474C354.76 21.2751 354.339 21.1389 353.845 21.1389C353.357 21.1389 352.939 21.2814 352.591 21.5664C352.242 21.8451 351.957 22.2219 351.736 22.6969C351.52 23.1719 351.359 23.7071 351.251 24.3024C351.15 24.8914 351.099 25.4931 351.099 26.1074C351.099 26.7598 351.15 27.3836 351.251 27.9789C351.359 28.5679 351.52 29.0968 351.736 29.5654C351.957 30.0341 352.242 30.4046 352.591 30.6769C352.939 30.9429 353.357 31.0759 353.845 31.0759ZM365.952 32.7574L361.601 19.4574H363.824L366.626 28.8149C366.677 28.9733 366.724 29.1664 366.769 29.3944C366.819 29.6161 366.857 29.8124 366.883 29.9834C366.914 29.8124 366.952 29.6193 366.997 29.4039C367.041 29.1823 367.085 28.9923 367.13 28.8339L369.961 19.4574H372.174L367.814 32.7574H365.952ZM374.629 32.7574L378.99 19.4574H380.842L385.212 32.7574H383.056L380.253 23.5709C380.228 23.4823 380.193 23.3556 380.149 23.1909C380.104 23.0199 380.06 22.8426 380.016 22.6589C379.971 22.4753 379.94 22.3106 379.921 22.1649C379.889 22.3106 379.851 22.4753 379.807 22.6589C379.769 22.8426 379.727 23.0199 379.683 23.1909C379.645 23.3556 379.613 23.4823 379.588 23.5709L376.805 32.7574H374.629ZM377.242 29.6984L377.802 27.8649H382.039L382.6 29.6984H377.242ZM406.244 32.9854C405.363 32.9854 404.6 32.7954 403.954 32.4154C403.314 32.0291 402.789 31.5098 402.377 30.8574C401.972 30.1988 401.668 29.4609 401.465 28.6439C401.269 27.8206 401.171 26.9751 401.171 26.1074C401.171 25.2588 401.272 24.4259 401.475 23.6089C401.684 22.7919 401.997 22.0541 402.415 21.3954C402.833 20.7368 403.359 20.2111 403.992 19.8184C404.632 19.4258 405.382 19.2294 406.244 19.2294C406.978 19.2294 407.593 19.3529 408.087 19.5999C408.587 19.8406 409.002 20.1573 409.331 20.5499C409.667 20.9363 409.955 21.3448 410.196 21.7754L408.4 22.8014C408.166 22.3581 407.881 21.9718 407.545 21.6424C407.209 21.3068 406.776 21.1389 406.244 21.1389C405.699 21.1389 405.237 21.2909 404.857 21.5949C404.483 21.8926 404.179 22.2884 403.945 22.7824C403.71 23.2764 403.539 23.8148 403.432 24.3974C403.33 24.9801 403.28 25.5501 403.28 26.1074C403.28 26.7408 403.337 27.3551 403.451 27.9504C403.571 28.5394 403.751 29.0714 403.992 29.5464C404.233 30.0151 404.54 30.3888 404.914 30.6674C405.287 30.9398 405.731 31.0759 406.244 31.0759C406.966 31.0759 407.517 30.8258 407.897 30.3254C408.277 29.8188 408.467 29.1759 408.467 28.3969V27.9789H406.12V26.0884H410.557V27.8364C410.557 28.9511 410.367 29.8916 409.987 30.6579C409.607 31.4243 409.09 32.0038 408.438 32.3964C407.786 32.7891 407.054 32.9854 406.244 32.9854ZM413.743 32.7574L418.104 19.4574H419.956L424.326 32.7574H422.17L419.367 23.5709C419.342 23.4823 419.307 23.3556 419.263 23.1909C419.218 23.0199 419.174 22.8426 419.13 22.6589C419.085 22.4753 419.054 22.3106 419.035 22.1649C419.003 22.3106 418.965 22.4753 418.921 22.6589C418.883 22.8426 418.841 23.0199 418.797 23.1909C418.759 23.3556 418.727 23.4823 418.702 23.5709L415.919 32.7574H413.743ZM416.356 29.6984L416.916 27.8649H421.153L421.714 29.6984H416.356ZM427.807 32.7574V19.4574H429.84V30.8099H436.044V32.7574H427.807ZM439.819 32.7574L444.18 19.4574H446.032L450.402 32.7574H448.246L445.443 23.5709C445.418 23.4823 445.383 23.3556 445.339 23.1909C445.294 23.0199 445.25 22.8426 445.206 22.6589C445.161 22.4753 445.13 22.3106 445.111 22.1649C445.079 22.3106 445.041 22.4753 444.997 22.6589C444.959 22.8426 444.918 23.0199 444.873 23.1909C444.835 23.3556 444.804 23.4823 444.778 23.5709L441.995 32.7574H439.819ZM442.432 29.6984L442.992 27.8649H447.229L447.79 29.6984H442.432ZM460.847 32.7574L457.617 26.8294L453.418 19.4574H455.726L458.671 24.8914L463.155 32.7574H460.847ZM453.142 32.7574L457.598 24.9484L460.543 19.4574H462.842L458.624 26.8009L455.451 32.7574H453.142ZM470.189 32.7574V27.5324L466.304 19.4574H468.555L471.595 26.3164H470.788L473.866 19.4574H476.07L472.203 27.5324V32.7574H470.189Z" fill="white"/>
<mask id="mask1_42_573" style="mask-type:luminance" maskUnits="userSpaceOnUse" x="481" y="7" width="43" height="42">
<path d="M521.236 7.03943L523.162 46.5497L483.652 48.4754L481.726 8.96515L521.236 7.03943Z" fill="white"/>
</mask>
<g mask="url(#mask1_42_573)">
<path d="M482.689 28.7203C501.377 27.2362 501.819 26.7459 501.481 8.00229C502.965 26.69 503.456 27.1319 522.199 26.7946C503.511 28.2787 503.07 28.7689 503.407 47.5126C501.92 28.825 501.438 28.3827 482.689 28.7203Z" fill="url(#paint1_linear_42_573)"/>
</g>
<path d="M528.749 32.7574V19.4574H530.791L532.739 27.0004C532.796 27.2348 532.853 27.4723 532.91 27.7129C532.973 27.9473 533.017 28.1563 533.043 28.3399C533.074 28.1563 533.119 27.9473 533.176 27.7129C533.233 27.4723 533.293 27.2348 533.356 27.0004L535.342 19.4574H537.28V32.7574H535.494V25.1099C535.494 24.9706 535.494 24.7869 535.494 24.5589C535.5 24.3246 535.513 24.1283 535.532 23.9699C535.481 24.1473 535.424 24.3373 535.361 24.5399C535.304 24.7363 535.25 24.9263 535.199 25.1099L533.128 32.7574H532.91L530.829 25.1099C530.778 24.9263 530.721 24.7331 530.658 24.5304C530.601 24.3278 530.547 24.1409 530.497 23.9699C530.509 24.1283 530.519 24.3246 530.525 24.5589C530.531 24.7869 530.535 24.9706 530.535 25.1099V32.7574H528.749ZM545.036 32.7574V19.4574H547.059V32.7574H545.036ZM542.157 32.7574V30.9429H549.947V32.7574H542.157ZM542.157 21.2624V19.4574H549.947V21.2624H542.157ZM554.825 32.7574V19.4574H556.858V30.8099H563.061V32.7574H554.825ZM569.573 27.9599V25.1574L574.028 19.4574H576.384L569.573 27.9599ZM567.863 32.7574V19.4574H569.896V32.7574H567.863ZM574.893 32.7574L571.083 25.5754L572.451 23.8654L577.249 32.7574H574.893ZM584.169 32.7574V27.5324L580.283 19.4574H582.535L585.575 26.3164H584.767L587.845 19.4574H590.049L586.183 27.5324V32.7574H584.169ZM607.832 32.7574L605.827 19.4574H607.68L608.791 27.7034C608.804 27.8048 608.823 27.9473 608.848 28.1309C608.88 28.3083 608.902 28.4634 608.915 28.5964C608.934 28.4761 608.959 28.3273 608.991 28.1499C609.029 27.9663 609.06 27.8111 609.086 27.6844L610.653 19.4574H611.841L613.427 27.6274C613.459 27.7794 613.487 27.9283 613.513 28.0739C613.544 28.2196 613.57 28.3621 613.589 28.5014C613.614 28.3304 613.636 28.1784 613.655 28.0454C613.674 27.9124 613.693 27.7794 613.712 27.6464L614.7 19.4574H616.667L614.643 32.7574H613.028L611.394 24.3974C611.356 24.2328 611.324 24.0744 611.299 23.9224C611.274 23.7704 611.252 23.6184 611.233 23.4664C611.214 23.6184 611.191 23.7673 611.166 23.9129C611.141 24.0586 611.112 24.2138 611.081 24.3784L609.447 32.7574H607.832ZM618.989 32.7574L623.349 19.4574H625.202L629.572 32.7574H627.415L624.613 23.5709C624.587 23.4823 624.552 23.3556 624.508 23.1909C624.464 23.0199 624.419 22.8426 624.375 22.6589C624.331 22.4753 624.299 22.3106 624.28 22.1649C624.248 22.3106 624.21 22.4753 624.166 22.6589C624.128 22.8426 624.087 23.0199 624.043 23.1909C624.005 23.3556 623.973 23.4823 623.948 23.5709L621.164 32.7574H618.989ZM621.601 29.6984L622.162 27.8649H626.399L626.959 29.6984H621.601ZM636.321 32.7574V27.5324L632.435 19.4574H634.687L637.727 26.3164H636.919L639.997 19.4574H642.201L638.335 27.5324V32.7574H636.321ZM663.641 32.9854C662.761 32.9854 661.998 32.7954 661.352 32.4154C660.712 32.0291 660.186 31.5098 659.775 30.8574C659.369 30.1988 659.065 29.4609 658.863 28.6439C658.666 27.8206 658.568 26.9751 658.568 26.1074C658.568 25.2588 658.67 24.4259 658.872 23.6089C659.081 22.7919 659.395 22.0541 659.813 21.3954C660.231 20.7368 660.756 20.2111 661.39 19.8184C662.029 19.4258 662.78 19.2294 663.641 19.2294C664.376 19.2294 664.99 19.3529 665.484 19.5999C665.985 19.8406 666.399 20.1573 666.729 20.5499C667.064 20.9363 667.353 21.3448 667.593 21.7754L665.798 22.8014C665.563 22.3581 665.278 21.9718 664.943 21.6424C664.607 21.3068 664.173 21.1389 663.641 21.1389C663.097 21.1389 662.634 21.2909 662.254 21.5949C661.881 21.8926 661.577 22.2884 661.342 22.7824C661.108 23.2764 660.937 23.8148 660.829 24.3974C660.728 24.9801 660.677 25.5501 660.677 26.1074C660.677 26.7408 660.734 27.3551 660.848 27.9504C660.969 28.5394 661.149 29.0714 661.39 29.5464C661.63 30.0151 661.938 30.3888 662.311 30.6674C662.685 30.9398 663.128 31.0759 663.641 31.0759C664.363 31.0759 664.914 30.8258 665.294 30.3254C665.674 29.8188 665.864 29.1759 665.864 28.3969V27.9789H663.518V26.0884H667.954V27.8364C667.954 28.9511 667.764 29.8916 667.384 30.6579C667.004 31.4243 666.488 32.0038 665.836 32.3964C665.183 32.7891 664.452 32.9854 663.641 32.9854ZM671.141 32.7574L675.501 19.4574H677.354L681.724 32.7574H679.567L676.765 23.5709C676.739 23.4823 676.705 23.3556 676.66 23.1909C676.616 23.0199 676.572 22.8426 676.527 22.6589C676.483 22.4753 676.451 22.3106 676.432 22.1649C676.401 22.3106 676.363 22.4753 676.318 22.6589C676.28 22.8426 676.239 23.0199 676.195 23.1909C676.157 23.3556 676.125 23.4823 676.1 23.5709L673.316 32.7574H671.141ZM673.753 29.6984L674.314 27.8649H678.551L679.111 29.6984H673.753ZM685.205 32.7574V19.4574H687.238V30.8099H693.441V32.7574H685.205ZM697.217 32.7574L701.577 19.4574H703.43L707.8 32.7574H705.643L702.841 23.5709C702.815 23.4823 702.781 23.3556 702.736 23.1909C702.692 23.0199 702.648 22.8426 702.603 22.6589C702.559 22.4753 702.527 22.3106 702.508 22.1649C702.477 22.3106 702.439 22.4753 702.394 22.6589C702.356 22.8426 702.315 23.0199 702.271 23.1909C702.233 23.3556 702.201 23.4823 702.176 23.5709L699.392 32.7574H697.217ZM699.829 29.6984L700.39 27.8649H704.627L705.187 29.6984H699.829ZM718.244 32.7574L715.014 26.8294L710.815 19.4574H713.124L716.069 24.8914L720.553 32.7574H718.244ZM710.54 32.7574L714.995 24.9484L717.94 19.4574H720.239L716.021 26.8009L712.848 32.7574H710.54ZM727.587 32.7574V27.5324L723.701 19.4574H725.953L728.993 26.3164H728.185L731.263 19.4574H733.467L729.601 27.5324V32.7574H727.587Z" fill="white"/>
<mask id="mask2_42_573" style="mask-type:luminance" maskUnits="userSpaceOnUse" x="739" y="1" width="54" height="54">
<path d="M792.126 18.7527L774.649 54.2395L739.162 36.7622L756.639 1.27541L792.126 18.7527Z" fill="white"/>
</mask>
<g mask="url(#mask2_42_573)">
<path d="M747.901 19.0188C764.963 26.784 765.587 26.5695 774.383 10.0141C766.617 27.0768 766.832 27.701 783.387 36.4961C766.325 28.731 765.7 28.9454 756.905 45.5009C764.668 28.4368 764.461 27.8165 747.901 19.0188Z" fill="url(#paint2_linear_42_573)"/>
</g>
<path d="M802.301 32.9664C801.357 32.9664 800.556 32.7701 799.897 32.3774C799.239 31.9848 798.707 31.4591 798.301 30.8004C797.896 30.1418 797.598 29.4039 797.408 28.5869C797.225 27.7699 797.133 26.9434 797.133 26.1074C797.133 25.2841 797.228 24.4671 797.418 23.6564C797.614 22.8394 797.918 22.0984 798.33 21.4334C798.742 20.7684 799.274 20.2364 799.926 19.8374C800.585 19.4384 801.376 19.2389 802.301 19.2389C803.023 19.2389 803.644 19.3656 804.163 19.6189C804.682 19.8723 805.113 20.2016 805.455 20.6069C805.797 21.0059 806.06 21.4239 806.243 21.8609L804.438 22.7539C804.191 22.2789 803.906 21.8926 803.583 21.5949C803.26 21.2973 802.833 21.1484 802.301 21.1484C801.737 21.1484 801.259 21.3004 800.866 21.6044C800.474 21.9021 800.157 22.2979 799.916 22.7919C799.676 23.2796 799.502 23.8148 799.394 24.3974C799.286 24.9738 799.232 25.5438 799.232 26.1074C799.232 26.7091 799.293 27.3044 799.413 27.8934C799.533 28.4824 799.717 29.0144 799.964 29.4894C800.217 29.9644 800.537 30.3444 800.923 30.6294C801.31 30.9144 801.769 31.0569 802.301 31.0569C802.839 31.0569 803.279 30.8986 803.621 30.5819C803.97 30.2653 804.261 29.8568 804.495 29.3564L806.329 30.0499C806.107 30.5946 805.816 31.0886 805.455 31.5319C805.094 31.9753 804.651 32.3268 804.125 32.5864C803.606 32.8398 802.998 32.9664 802.301 32.9664ZM813.999 32.7574V19.4574H816.023V32.7574H813.999ZM811.121 32.7574V30.9429H818.911V32.7574H811.121ZM811.121 21.2624V19.4574H818.911V21.2624H811.121ZM828.301 32.9854C827.421 32.9854 826.657 32.7954 826.011 32.4154C825.372 32.0291 824.846 31.5098 824.434 30.8574C824.029 30.1988 823.725 29.4609 823.522 28.6439C823.326 27.8206 823.228 26.9751 823.228 26.1074C823.228 25.2588 823.329 24.4259 823.532 23.6089C823.741 22.7919 824.054 22.0541 824.472 21.3954C824.89 20.7368 825.416 20.2111 826.049 19.8184C826.689 19.4258 827.44 19.2294 828.301 19.2294C829.036 19.2294 829.65 19.3529 830.144 19.5999C830.644 19.8406 831.059 20.1573 831.388 20.5499C831.724 20.9363 832.012 21.3448 832.253 21.7754L830.457 22.8014C830.223 22.3581 829.938 21.9718 829.602 21.6424C829.267 21.3068 828.833 21.1389 828.301 21.1389C827.756 21.1389 827.294 21.2909 826.914 21.5949C826.54 21.8926 826.236 22.2884 826.002 22.7824C825.768 23.2764 825.597 23.8148 825.489 24.3974C825.388 24.9801 825.337 25.5501 825.337 26.1074C825.337 26.7408 825.394 27.3551 825.508 27.9504C825.628 28.5394 825.809 29.0714 826.049 29.5464C826.29 30.0151 826.597 30.3888 826.971 30.6674C827.345 30.9398 827.788 31.0759 828.301 31.0759C829.023 31.0759 829.574 30.8258 829.954 30.3254C830.334 29.8188 830.524 29.1759 830.524 28.3969V27.9789H828.177V26.0884H832.614V27.8364C832.614 28.9511 832.424 29.8916 832.044 30.6579C831.664 31.4243 831.148 32.0038 830.495 32.3964C829.843 32.7891 829.112 32.9854 828.301 32.9854ZM835.801 32.7574L840.161 19.4574H842.014L846.384 32.7574H844.227L841.425 23.5709C841.399 23.4823 841.364 23.3556 841.32 23.1909C841.276 23.0199 841.231 22.8426 841.187 22.6589C841.143 22.4753 841.111 22.3106 841.092 22.1649C841.06 22.3106 841.022 22.4753 840.978 22.6589C840.94 22.8426 840.899 23.0199 840.855 23.1909C840.817 23.3556 840.785 23.4823 840.76 23.5709L837.976 32.7574H835.801ZM838.413 29.6984L838.974 27.8649H843.211L843.771 29.6984H838.413ZM849.865 32.7574V19.4574H854.273C855.356 19.4574 856.207 19.6443 856.828 20.0179C857.455 20.3916 857.898 20.8793 858.158 21.4809C858.424 22.0826 858.557 22.7191 858.557 23.3904C858.557 23.8654 858.478 24.3341 858.32 24.7964C858.168 25.2524 857.927 25.6673 857.598 26.0409C857.275 26.4146 856.86 26.7186 856.353 26.9529C855.846 27.1873 855.245 27.3234 854.548 27.3614H851.898V32.7574H849.865ZM856.277 32.7574L853.494 27.0954L855.65 26.8959L858.529 32.7574H856.277ZM851.898 25.4709H854.311C854.868 25.4709 855.305 25.3728 855.622 25.1764C855.945 24.9738 856.173 24.7173 856.306 24.4069C856.439 24.0966 856.505 23.7673 856.505 23.4189C856.505 23.1086 856.442 22.7951 856.315 22.4784C856.188 22.1554 855.967 21.8863 855.65 21.6709C855.333 21.4556 854.887 21.3479 854.311 21.3479H851.898V25.4709ZM880.453 32.9854C879.573 32.9854 878.81 32.7954 878.164 32.4154C877.524 32.0291 876.998 31.5098 876.587 30.8574C876.181 30.1988 875.877 29.4609 875.675 28.6439C875.478 27.8206 875.38 26.9751 875.38 26.1074C875.38 25.2588 875.481 24.4259 875.684 23.6089C875.893 22.7919 876.207 22.0541 876.625 21.3954C877.043 20.7368 877.568 20.2111 878.202 19.8184C878.841 19.4258 879.592 19.2294 880.453 19.2294C881.188 19.2294 881.802 19.3529 882.296 19.5999C882.796 19.8406 883.211 20.1573 883.541 20.5499C883.876 20.9363 884.164 21.3448 884.405 21.7754L882.61 22.8014C882.375 22.3581 882.09 21.9718 881.755 21.6424C881.419 21.3068 880.985 21.1389 880.453 21.1389C879.908 21.1389 879.446 21.2909 879.066 21.5949C878.692 21.8926 878.388 22.2884 878.154 22.7824C877.92 23.2764 877.749 23.8148 877.641 24.3974C877.54 24.9801 877.489 25.5501 877.489 26.1074C877.489 26.7408 877.546 27.3551 877.66 27.9504C877.78 28.5394 877.961 29.0714 878.202 29.5464C878.442 30.0151 878.749 30.3888 879.123 30.6674C879.497 30.9398 879.94 31.0759 880.453 31.0759C881.175 31.0759 881.726 30.8258 882.106 30.3254C882.486 29.8188 882.676 29.1759 882.676 28.3969V27.9789H880.33V26.0884H884.766V27.8364C884.766 28.9511 884.576 29.8916 884.196 30.6579C883.816 31.4243 883.3 32.0038 882.648 32.3964C881.995 32.7891 881.264 32.9854 880.453 32.9854ZM887.953 32.7574L892.313 19.4574H894.166L898.536 32.7574H896.379L893.577 23.5709C893.551 23.4823 893.516 23.3556 893.472 23.1909C893.428 23.0199 893.383 22.8426 893.339 22.6589C893.295 22.4753 893.263 22.3106 893.244 22.1649C893.212 22.3106 893.174 22.4753 893.13 22.6589C893.092 22.8426 893.051 23.0199 893.007 23.1909C892.969 23.3556 892.937 23.4823 892.912 23.5709L890.128 32.7574H887.953ZM890.565 29.6984L891.126 27.8649H895.363L895.923 29.6984H890.565ZM902.017 32.7574V19.4574H904.05V30.8099H910.253V32.7574H902.017ZM914.029 32.7574L918.389 19.4574H920.242L924.612 32.7574H922.455L919.653 23.5709C919.627 23.4823 919.592 23.3556 919.548 23.1909C919.504 23.0199 919.459 22.8426 919.415 22.6589C919.371 22.4753 919.339 22.3106 919.32 22.1649C919.288 22.3106 919.25 22.4753 919.206 22.6589C919.168 22.8426 919.127 23.0199 919.083 23.1909C919.045 23.3556 919.013 23.4823 918.988 23.5709L916.204 32.7574H914.029ZM916.641 29.6984L917.202 27.8649H921.439L921.999 29.6984H916.641ZM935.056 32.7574L931.826 26.8294L927.627 19.4574H929.936L932.881 24.8914L937.365 32.7574H935.056ZM927.352 32.7574L931.807 24.9484L934.752 19.4574H937.051L932.833 26.8009L929.66 32.7574H927.352ZM944.399 32.7574V27.5324L940.513 19.4574H942.765L945.805 26.3164H944.997L948.075 19.4574H950.279L946.413 27.5324V32.7574H944.399Z" fill="white"/>
<mask id="mask3_42_573" style="mask-type:luminance" maskUnits="userSpaceOnUse" x="956" y="7" width="41" height="42">
<path d="M995.666 7.39484L996.852 46.9342L957.313 48.1201L956.127 8.58071L995.666 7.39484Z" fill="white"/>
</mask>
<g mask="url(#mask3_42_573)">
<path d="M956.72 28.3504C975.432 27.2163 975.883 26.7344 975.896 7.98777C977.03 26.7 977.512 27.151 996.259 27.1645C977.547 28.2986 977.096 28.7805 977.082 47.5272C975.945 28.815 975.472 28.3638 956.72 28.3504Z" fill="url(#paint3_linear_42_573)"/>
</g>
<path d="M1003.29 32.7574L1001.29 19.4574H1003.14L1004.25 27.7034C1004.27 27.8048 1004.28 27.9473 1004.31 28.1309C1004.34 28.3083 1004.36 28.4634 1004.38 28.5964C1004.4 28.4761 1004.42 28.3273 1004.45 28.1499C1004.49 27.9663 1004.52 27.8111 1004.55 27.6844L1006.11 19.4574H1007.3L1008.89 27.6274C1008.92 27.7794 1008.95 27.9283 1008.97 28.0739C1009.01 28.2196 1009.03 28.3621 1009.05 28.5014C1009.08 28.3304 1009.1 28.1784 1009.12 28.0454C1009.14 27.9124 1009.15 27.7794 1009.17 27.6464L1010.16 19.4574H1012.13L1010.1 32.7574H1008.49L1006.86 24.3974C1006.82 24.2328 1006.79 24.0744 1006.76 23.9224C1006.74 23.7704 1006.71 23.6184 1006.69 23.4664C1006.68 23.6184 1006.65 23.7673 1006.63 23.9129C1006.6 24.0586 1006.57 24.2138 1006.54 24.3784L1004.91 32.7574H1003.29ZM1015.48 32.7574V19.4574H1017.51V24.9294H1021.98V19.4574H1024.01V32.7574H1021.98V26.8389H1017.51V32.7574H1015.48ZM1031.76 32.7574V19.4574H1033.79V32.7574H1031.76ZM1028.88 32.7574V30.9429H1036.67V32.7574H1028.88ZM1028.88 21.2624V19.4574H1036.67V21.2624H1028.88ZM1041.55 32.7574V19.4574H1045.96C1047.04 19.4574 1047.89 19.6443 1048.52 20.0179C1049.14 20.3916 1049.59 20.8793 1049.85 21.4809C1050.11 22.0826 1050.24 22.7191 1050.24 23.3904C1050.24 23.8654 1050.17 24.3341 1050.01 24.7964C1049.86 25.2524 1049.61 25.6673 1049.29 26.0409C1048.96 26.4146 1048.55 26.7186 1048.04 26.9529C1047.53 27.1873 1046.93 27.3234 1046.24 27.3614H1043.59V32.7574H1041.55ZM1047.96 32.7574L1045.18 27.0954L1047.34 26.8959L1050.22 32.7574H1047.96ZM1043.59 25.4709H1046C1046.56 25.4709 1046.99 25.3728 1047.31 25.1764C1047.63 24.9738 1047.86 24.7173 1047.99 24.4069C1048.13 24.0966 1048.19 23.7673 1048.19 23.4189C1048.19 23.1086 1048.13 22.7951 1048 22.4784C1047.88 22.1554 1047.65 21.8863 1047.34 21.6709C1047.02 21.4556 1046.57 21.3479 1046 21.3479H1043.59V25.4709ZM1054.59 32.7574V19.4574H1056.62V30.8099H1062.83V32.7574H1054.59ZM1067.63 32.7574V19.4574H1072.1C1073.19 19.4574 1074.06 19.6569 1074.7 20.0559C1075.34 20.4549 1075.79 20.9679 1076.07 21.5949C1076.35 22.2156 1076.49 22.8584 1076.49 23.5234C1076.49 23.9921 1076.41 24.4671 1076.24 24.9484C1076.09 25.4234 1075.83 25.8604 1075.48 26.2594C1075.13 26.6584 1074.67 26.9814 1074.12 27.2284C1073.57 27.4691 1072.89 27.5894 1072.1 27.5894H1069.66V32.7574H1067.63ZM1069.66 25.6989H1072.22C1072.76 25.6989 1073.2 25.5913 1073.52 25.3759C1073.85 25.1543 1074.08 24.8788 1074.23 24.5494C1074.38 24.2138 1074.45 23.8718 1074.45 23.5234C1074.45 23.2131 1074.38 22.8901 1074.25 22.5544C1074.12 22.2188 1073.9 21.9338 1073.58 21.6994C1073.25 21.4651 1072.8 21.3479 1072.22 21.3479H1069.66V25.6989ZM1084.93 32.9854C1084.06 32.9854 1083.32 32.7954 1082.71 32.4154C1082.09 32.0291 1081.59 31.5098 1081.21 30.8574C1080.82 30.2051 1080.54 29.4704 1080.35 28.6534C1080.18 27.8301 1080.09 26.9814 1080.09 26.1074C1080.09 25.2334 1080.18 24.3879 1080.35 23.5709C1080.54 22.7476 1080.82 22.0098 1081.21 21.3574C1081.59 20.7051 1082.09 20.1889 1082.71 19.8089C1083.32 19.4226 1084.06 19.2294 1084.93 19.2294C1085.8 19.2294 1086.54 19.4226 1087.15 19.8089C1087.78 20.1889 1088.28 20.7051 1088.67 21.3574C1089.05 22.0098 1089.34 22.7476 1089.52 23.5709C1089.7 24.3879 1089.8 25.2334 1089.8 26.1074C1089.8 26.9814 1089.7 27.8301 1089.52 28.6534C1089.34 29.4704 1089.05 30.2051 1088.67 30.8574C1088.28 31.5098 1087.78 32.0291 1087.15 32.4154C1086.54 32.7954 1085.8 32.9854 1084.93 32.9854ZM1084.93 31.0759C1085.42 31.0759 1085.84 30.9334 1086.19 30.6484C1086.53 30.3634 1086.82 29.9834 1087.03 29.5084C1087.25 29.0334 1087.41 28.5014 1087.52 27.9124C1087.62 27.3171 1087.68 26.7154 1087.68 26.1074C1087.68 25.4488 1087.62 24.8249 1087.52 24.2359C1087.41 23.6406 1087.26 23.1118 1087.04 22.6494C1086.83 22.1808 1086.54 21.8134 1086.2 21.5474C1085.85 21.2751 1085.43 21.1389 1084.93 21.1389C1084.44 21.1389 1084.03 21.2814 1083.68 21.5664C1083.33 21.8451 1083.04 22.2219 1082.82 22.6969C1082.61 23.1719 1082.45 23.7071 1082.34 24.3024C1082.24 24.8914 1082.19 25.4931 1082.19 26.1074C1082.19 26.7598 1082.24 27.3836 1082.34 27.9789C1082.45 28.5679 1082.61 29.0968 1082.82 29.5654C1083.04 30.0341 1083.33 30.4046 1083.68 30.6769C1084.03 30.9429 1084.44 31.0759 1084.93 31.0759ZM1097.97 32.9854C1097.1 32.9854 1096.36 32.7954 1095.75 32.4154C1095.13 32.0291 1094.63 31.5098 1094.25 30.8574C1093.86 30.2051 1093.57 29.4704 1093.39 28.6534C1093.21 27.8301 1093.12 26.9814 1093.12 26.1074C1093.12 25.2334 1093.21 24.3879 1093.39 23.5709C1093.57 22.7476 1093.86 22.0098 1094.25 21.3574C1094.63 20.7051 1095.13 20.1889 1095.75 19.8089C1096.36 19.4226 1097.1 19.2294 1097.97 19.2294C1098.84 19.2294 1099.58 19.4226 1100.19 19.8089C1100.81 20.1889 1101.32 20.7051 1101.7 21.3574C1102.09 22.0098 1102.37 22.7476 1102.56 23.5709C1102.74 24.3879 1102.83 25.2334 1102.83 26.1074C1102.83 26.9814 1102.74 27.8301 1102.56 28.6534C1102.37 29.4704 1102.09 30.2051 1101.7 30.8574C1101.32 31.5098 1100.81 32.0291 1100.19 32.4154C1099.58 32.7954 1098.84 32.9854 1097.97 32.9854ZM1097.97 31.0759C1098.46 31.0759 1098.88 30.9334 1099.22 30.6484C1099.57 30.3634 1099.85 29.9834 1100.07 29.5084C1100.29 29.0334 1100.45 28.5014 1100.55 27.9124C1100.66 27.3171 1100.72 26.7154 1100.72 26.1074C1100.72 25.4488 1100.66 24.8249 1100.55 24.2359C1100.45 23.6406 1100.29 23.1118 1100.08 22.6494C1099.86 22.1808 1099.58 21.8134 1099.23 21.5474C1098.88 21.2751 1098.46 21.1389 1097.97 21.1389C1097.48 21.1389 1097.06 21.2814 1096.72 21.5664C1096.37 21.8451 1096.08 22.2219 1095.86 22.6969C1095.65 23.1719 1095.48 23.7071 1095.38 24.3024C1095.27 24.8914 1095.22 25.4931 1095.22 26.1074C1095.22 26.7598 1095.27 27.3836 1095.38 27.9789C1095.48 28.5679 1095.65 29.0968 1095.86 29.5654C1096.08 30.0341 1096.37 30.4046 1096.72 30.6769C1097.06 30.9429 1097.48 31.0759 1097.97 31.0759ZM1106.74 32.7574V19.4574H1108.78V30.8099H1114.98V32.7574H1106.74ZM1137.33 32.9854C1136.45 32.9854 1135.69 32.7954 1135.04 32.4154C1134.4 32.0291 1133.88 31.5098 1133.46 30.8574C1133.06 30.1988 1132.75 29.4609 1132.55 28.6439C1132.36 27.8206 1132.26 26.9751 1132.26 26.1074C1132.26 25.2588 1132.36 24.4259 1132.56 23.6089C1132.77 22.7919 1133.08 22.0541 1133.5 21.3954C1133.92 20.7368 1134.45 20.2111 1135.08 19.8184C1135.72 19.4258 1136.47 19.2294 1137.33 19.2294C1138.07 19.2294 1138.68 19.3529 1139.17 19.5999C1139.67 19.8406 1140.09 20.1573 1140.42 20.5499C1140.75 20.9363 1141.04 21.3448 1141.28 21.7754L1139.49 22.8014C1139.25 22.3581 1138.97 21.9718 1138.63 21.6424C1138.3 21.3068 1137.86 21.1389 1137.33 21.1389C1136.79 21.1389 1136.32 21.2909 1135.94 21.5949C1135.57 21.8926 1135.27 22.2884 1135.03 22.7824C1134.8 23.2764 1134.63 23.8148 1134.52 24.3974C1134.42 24.9801 1134.37 25.5501 1134.37 26.1074C1134.37 26.7408 1134.42 27.3551 1134.54 27.9504C1134.66 28.5394 1134.84 29.0714 1135.08 29.5464C1135.32 30.0151 1135.63 30.3888 1136 30.6674C1136.37 30.9398 1136.82 31.0759 1137.33 31.0759C1138.05 31.0759 1138.6 30.8258 1138.98 30.3254C1139.36 29.8188 1139.55 29.1759 1139.55 28.3969V27.9789H1137.21V26.0884H1141.64V27.8364C1141.64 28.9511 1141.45 29.8916 1141.07 30.6579C1140.69 31.4243 1140.18 32.0038 1139.53 32.3964C1138.87 32.7891 1138.14 32.9854 1137.33 32.9854ZM1144.83 32.7574L1149.19 19.4574H1151.04L1155.41 32.7574H1153.26L1150.45 23.5709C1150.43 23.4823 1150.39 23.3556 1150.35 23.1909C1150.31 23.0199 1150.26 22.8426 1150.22 22.6589C1150.17 22.4753 1150.14 22.3106 1150.12 22.1649C1150.09 22.3106 1150.05 22.4753 1150.01 22.6589C1149.97 22.8426 1149.93 23.0199 1149.88 23.1909C1149.85 23.3556 1149.81 23.4823 1149.79 23.5709L1147.01 32.7574H1144.83ZM1147.44 29.6984L1148 27.8649H1152.24L1152.8 29.6984H1147.44ZM1158.89 32.7574V19.4574H1160.93V30.8099H1167.13V32.7574H1158.89ZM1170.91 32.7574L1175.27 19.4574H1177.12L1181.49 32.7574H1179.33L1176.53 23.5709C1176.5 23.4823 1176.47 23.3556 1176.43 23.1909C1176.38 23.0199 1176.34 22.8426 1176.29 22.6589C1176.25 22.4753 1176.22 22.3106 1176.2 22.1649C1176.17 22.3106 1176.13 22.4753 1176.08 22.6589C1176.05 22.8426 1176 23.0199 1175.96 23.1909C1175.92 23.3556 1175.89 23.4823 1175.87 23.5709L1173.08 32.7574H1170.91ZM1173.52 29.6984L1174.08 27.8649H1178.32L1178.88 29.6984H1173.52ZM1191.93 32.7574L1188.7 26.8294L1184.5 19.4574H1186.81L1189.76 24.8914L1194.24 32.7574H1191.93ZM1184.23 32.7574L1188.68 24.9484L1191.63 19.4574H1193.93L1189.71 26.8009L1186.54 32.7574H1184.23ZM1201.28 32.7574V27.5324L1197.39 19.4574H1199.64L1202.68 26.3164H1201.87L1204.95 19.4574H1207.16L1203.29 27.5324V32.7574H1201.28Z" fill="white"/>
<mask id="mask4_42_573" style="mask-type:luminance" maskUnits="userSpaceOnUse" x="1212" y="0" width="57" height="56">
<path d="M1237.13 0.003479L1268.36 24.2787L1244.08 55.5114L1212.85 31.2362L1237.13 0.003479Z" fill="white"/>
</mask>
<g mask="url(#mask4_42_573)">
<path d="M1228.47 43.3738C1239.51 28.2278 1239.43 27.5732 1224.99 15.6199C1240.14 26.6667 1240.79 26.5825 1252.74 12.1411C1241.7 27.2871 1241.78 27.9417 1256.22 39.895C1241.07 28.8506 1240.43 28.9279 1228.47 43.3738Z" fill="url(#paint4_linear_42_573)"/>
</g>
<path d="M1273.95 32.7574V19.4574H1278.18C1279.25 19.4574 1280.09 19.6284 1280.7 19.9704C1281.31 20.3124 1281.75 20.7558 1282 21.3004C1282.26 21.8388 1282.39 22.4024 1282.39 22.9914C1282.39 23.5994 1282.24 24.1473 1281.93 24.6349C1281.62 25.1163 1281.17 25.4868 1280.57 25.7464C1281.3 25.9744 1281.87 26.3766 1282.26 26.9529C1282.65 27.5293 1282.85 28.1784 1282.85 28.9004C1282.85 29.3628 1282.77 29.8219 1282.62 30.2779C1282.47 30.7339 1282.23 31.1488 1281.89 31.5224C1281.55 31.8961 1281.11 32.1969 1280.55 32.4249C1279.99 32.6466 1279.3 32.7574 1278.47 32.7574H1273.95ZM1275.98 30.8859H1278.64C1279.22 30.8859 1279.66 30.7909 1279.98 30.6009C1280.3 30.4046 1280.53 30.1576 1280.65 29.8599C1280.78 29.5623 1280.84 29.2583 1280.84 28.9479C1280.84 28.5806 1280.77 28.2323 1280.61 27.9029C1280.47 27.5736 1280.19 27.3044 1279.79 27.0954C1279.39 26.8864 1278.82 26.7819 1278.07 26.7819H1275.98V30.8859ZM1275.98 24.9389H1277.87C1278.72 24.9389 1279.35 24.7711 1279.76 24.4354C1280.18 24.0998 1280.39 23.6533 1280.39 23.0959C1280.39 22.8109 1280.33 22.5323 1280.22 22.2599C1280.11 21.9876 1279.9 21.7628 1279.59 21.5854C1279.28 21.4081 1278.84 21.3194 1278.25 21.3194H1275.98V24.9389ZM1286.98 32.7574V19.4574H1289.02V30.8099H1295.22V32.7574H1286.98ZM1299 32.7574L1303.36 19.4574H1305.21L1309.58 32.7574H1307.42L1304.62 23.5709C1304.59 23.4823 1304.56 23.3556 1304.52 23.1909C1304.47 23.0199 1304.43 22.8426 1304.38 22.6589C1304.34 22.4753 1304.31 22.3106 1304.29 22.1649C1304.26 22.3106 1304.22 22.4753 1304.17 22.6589C1304.14 22.8426 1304.09 23.0199 1304.05 23.1909C1304.01 23.3556 1303.98 23.4823 1303.95 23.5709L1301.17 32.7574H1299ZM1301.61 29.6984L1302.17 27.8649H1306.41L1306.97 29.6984H1301.61ZM1317.65 32.9664C1316.7 32.9664 1315.9 32.7701 1315.24 32.3774C1314.59 31.9848 1314.05 31.4591 1313.65 30.8004C1313.24 30.1418 1312.95 29.4039 1312.76 28.5869C1312.57 27.7699 1312.48 26.9434 1312.48 26.1074C1312.48 25.2841 1312.58 24.4671 1312.77 23.6564C1312.96 22.8394 1313.27 22.0984 1313.68 21.4334C1314.09 20.7684 1314.62 20.2364 1315.27 19.8374C1315.93 19.4384 1316.72 19.2389 1317.65 19.2389C1318.37 19.2389 1318.99 19.3656 1319.51 19.6189C1320.03 19.8723 1320.46 20.2016 1320.8 20.6069C1321.14 21.0059 1321.41 21.4239 1321.59 21.8609L1319.79 22.7539C1319.54 22.2789 1319.25 21.8926 1318.93 21.5949C1318.61 21.2973 1318.18 21.1484 1317.65 21.1484C1317.08 21.1484 1316.61 21.3004 1316.21 21.6044C1315.82 21.9021 1315.5 22.2979 1315.26 22.7919C1315.02 23.2796 1314.85 23.8148 1314.74 24.3974C1314.63 24.9738 1314.58 25.5438 1314.58 26.1074C1314.58 26.7091 1314.64 27.3044 1314.76 27.8934C1314.88 28.4824 1315.06 29.0144 1315.31 29.4894C1315.56 29.9644 1315.88 30.3444 1316.27 30.6294C1316.66 30.9144 1317.12 31.0569 1317.65 31.0569C1318.19 31.0569 1318.63 30.8986 1318.97 30.5819C1319.32 30.2653 1319.61 29.8568 1319.84 29.3564L1321.68 30.0499C1321.45 30.5946 1321.16 31.0886 1320.8 31.5319C1320.44 31.9753 1320 32.3268 1319.47 32.5864C1318.95 32.8398 1318.35 32.9664 1317.65 32.9664ZM1327.81 27.9599V25.1574L1332.26 19.4574H1334.62L1327.81 27.9599ZM1326.1 32.7574V19.4574H1328.13V32.7574H1326.1ZM1333.13 32.7574L1329.32 25.5754L1330.69 23.8654L1335.48 32.7574H1333.13ZM1352.17 32.7574V19.4574H1360.43V21.3859H1354.21V24.9199H1358.33V26.8484H1354.21V30.8289H1360.83V32.7574H1352.17ZM1368.48 32.7574V27.5324L1364.59 19.4574H1366.85L1369.89 26.3164H1369.08L1372.16 19.4574H1374.36L1370.49 27.5324V32.7574H1368.48ZM1378.25 32.7574V19.4574H1386.51V21.3859H1380.28V24.9199H1384.41V26.8484H1380.28V30.8289H1386.9V32.7574H1378.25ZM1408.84 32.9854C1407.96 32.9854 1407.19 32.7954 1406.55 32.4154C1405.91 32.0291 1405.38 31.5098 1404.97 30.8574C1404.57 30.1988 1404.26 29.4609 1404.06 28.6439C1403.86 27.8206 1403.77 26.9751 1403.77 26.1074C1403.77 25.2588 1403.87 24.4259 1404.07 23.6089C1404.28 22.7919 1404.59 22.0541 1405.01 21.3954C1405.43 20.7368 1405.95 20.2111 1406.59 19.8184C1407.23 19.4258 1407.98 19.2294 1408.84 19.2294C1409.57 19.2294 1410.19 19.3529 1410.68 19.5999C1411.18 19.8406 1411.6 20.1573 1411.93 20.5499C1412.26 20.9363 1412.55 21.3448 1412.79 21.7754L1410.99 22.8014C1410.76 22.3581 1410.48 21.9718 1410.14 21.6424C1409.8 21.3068 1409.37 21.1389 1408.84 21.1389C1408.29 21.1389 1407.83 21.2909 1407.45 21.5949C1407.08 21.8926 1406.77 22.2884 1406.54 22.7824C1406.31 23.2764 1406.13 23.8148 1406.03 24.3974C1405.93 24.9801 1405.87 25.5501 1405.87 26.1074C1405.87 26.7408 1405.93 27.3551 1406.05 27.9504C1406.17 28.5394 1406.35 29.0714 1406.59 29.5464C1406.83 30.0151 1407.13 30.3888 1407.51 30.6674C1407.88 30.9398 1408.33 31.0759 1408.84 31.0759C1409.56 31.0759 1410.11 30.8258 1410.49 30.3254C1410.87 29.8188 1411.06 29.1759 1411.06 28.3969V27.9789H1408.71V26.0884H1413.15V27.8364C1413.15 28.9511 1412.96 29.8916 1412.58 30.6579C1412.2 31.4243 1411.69 32.0038 1411.03 32.3964C1410.38 32.7891 1409.65 32.9854 1408.84 32.9854ZM1416.34 32.7574L1420.7 19.4574H1422.55L1426.92 32.7574H1424.76L1421.96 23.5709C1421.94 23.4823 1421.9 23.3556 1421.86 23.1909C1421.81 23.0199 1421.77 22.8426 1421.72 22.6589C1421.68 22.4753 1421.65 22.3106 1421.63 22.1649C1421.6 22.3106 1421.56 22.4753 1421.52 22.6589C1421.48 22.8426 1421.44 23.0199 1421.39 23.1909C1421.35 23.3556 1421.32 23.4823 1421.3 23.5709L1418.51 32.7574H1416.34ZM1418.95 29.6984L1419.51 27.8649H1423.75L1424.31 29.6984H1418.95ZM1430.4 32.7574V19.4574H1432.43V30.8099H1438.64V32.7574H1430.4ZM1442.41 32.7574L1446.77 19.4574H1448.63L1453 32.7574H1450.84L1448.04 23.5709C1448.01 23.4823 1447.98 23.3556 1447.93 23.1909C1447.89 23.0199 1447.84 22.8426 1447.8 22.6589C1447.76 22.4753 1447.72 22.3106 1447.71 22.1649C1447.67 22.3106 1447.64 22.4753 1447.59 22.6589C1447.55 22.8426 1447.51 23.0199 1447.47 23.1909C1447.43 23.3556 1447.4 23.4823 1447.37 23.5709L1444.59 32.7574H1442.41ZM1445.03 29.6984L1445.59 27.8649H1449.82L1450.38 29.6984H1445.03ZM1463.44 32.7574L1460.21 26.8294L1456.01 19.4574H1458.32L1461.27 24.8914L1465.75 32.7574H1463.44ZM1455.74 32.7574L1460.19 24.9484L1463.14 19.4574H1465.44L1461.22 26.8009L1458.05 32.7574H1455.74ZM1472.78 32.7574V27.5324L1468.9 19.4574H1471.15L1474.19 26.3164H1473.38L1476.46 19.4574H1478.66L1474.8 27.5324V32.7574H1472.78Z" fill="white"/>
<defs>
<linearGradient id="paint0_linear_42_573" x1="248.757" y1="37.6615" x2="209.553" y2="16.4531" gradientUnits="userSpaceOnUse">
<stop stop-color="#FF6500"/>
<stop offset="0.156" stop-color="white"/>
</linearGradient>
<linearGradient id="paint1_linear_42_573" x1="516.235" y1="10.0555" x2="487.499" y2="44.1295" gradientUnits="userSpaceOnUse">
<stop stop-color="#FF6500"/>
<stop offset="0.156" stop-color="white"/>
</linearGradient>
<linearGradient id="paint2_linear_42_573" x1="786.289" y1="18.9648" x2="744.634" y2="34.8275" gradientUnits="userSpaceOnUse">
<stop stop-color="#FF6500"/>
<stop offset="0.156" stop-color="white"/>
</linearGradient>
<linearGradient id="paint3_linear_42_573" x1="990.609" y1="10.3168" x2="961.241" y2="43.8469" gradientUnits="userSpaceOnUse">
<stop stop-color="#FF6500"/>
<stop offset="0.156" stop-color="white"/>
</linearGradient>
<linearGradient id="paint4_linear_42_573" x1="1236.16" y1="5.763" x2="1243.29" y2="49.7612" gradientUnits="userSpaceOnUse">
<stop stop-color="#FF6500"/>
<stop offset="0.156" stop-color="white"/>
</linearGradient>
</defs>
</svg>
